# xmcd CD database file generated by OrangeCD 5.2
#
# Track frame offsets:
#	182
#	17682
#	38560
#	54952
#	72865
#	91020
#	111132
#	142975
#	160627
#	181040
#	199082
#	219087
#
# Disc length: 3171 seconds
#
# Revision: 2
# Processed by: cddbd v1.5.1PL0 Copyright (c) Steve Scherf et al.
# Submitted via: OrangeCD 5.2
#
DISCID=890c610c
DTITLE=Kacy Crowley - Anchorless
DYEAR=1997
DGENRE=Country
TTITLE0=Bottlecap
TTITLE1=Rebellious
TTITLE2=Hand To Mouthville
TTITLE3=Singers Are Ugly
TTITLE4=Melancholy Bridge
TTITLE5=Vertigo
TTITLE6=Anything
TTITLE7=Nickel To The Stone
TTITLE8=Follow Me Outside
TTITLE9=Scars
TTITLE10=Love Is Close
TTITLE11=Eclipse
EXTD=
EXTT0=
EXTT1=
EXTT2=
EXTT3=
EXTT4=
EXTT5=
EXTT6=
EXTT7=
EXTT8=
EXTT9=
EXTT10=
EXTT11=
PLAYORDER=
